<svg id="Layer_1" data-name="Layer 1" xmlns="http://www.w3.org/2000/svg" viewBox="0 0 315.21 66"><defs><style>.cls-1{fill:#8e191b;}.cls-2{fill:#620710;}.cls-3{fill:#ca2027;}</style></defs><path d="M79.05,38.85l-5.33,5.69V54.8H64.61V14.2h9.11v19l17.56-19h10.2L85.05,32.3l17.39,22.5H91.74Z"/><path d="M123.6,55.5q-8.5,0-13.26-4.81t-4.7-13.75V14.2h9.18V36.59q0,10.9,8.83,10.9a8.23,8.23,0,0,0,6.57-2.61c1.52-1.78,2.27-4.54,2.27-8.29V14.2h9.06V36.94q0,8.93-4.75,13.75T123.6,55.5Z"/><path d="M158.17,21.85H145.48V14.2H180v7.65H167.35V54.8h-9.18Z"/><path d="M201.92,55.5q-8.49,0-13.25-4.81T184,36.94V14.2h9.17V36.59q0,10.9,8.84,10.9a8.23,8.23,0,0,0,6.57-2.61q2.26-2.67,2.27-8.29V14.2h9.06V36.94q0,8.93-4.76,13.75T201.92,55.5Z"/><path d="M265.31,14.2V54.8h-7.53L238,30.15V54.8H229V14.2h7.59l19.71,24.65V14.2Z"/><path d="M301.49,33.86h8.38V50.34a23.83,23.83,0,0,1-7.48,3.83,28.35,28.35,0,0,1-8.55,1.33,22.89,22.89,0,0,1-11.1-2.67A20.22,20.22,0,0,1,275,45.35,21.34,21.34,0,0,1,272.2,34.5,21,21,0,0,1,275,23.71a19.59,19.59,0,0,1,7.81-7.48A23,23,0,0,1,294,13.5a24,24,0,0,1,9.46,1.8,18.85,18.85,0,0,1,7.14,5.22l-5.9,5.57a13.46,13.46,0,0,0-10.25-4.58,13.77,13.77,0,0,0-6.74,1.62,11.56,11.56,0,0,0-4.59,4.58,13.84,13.84,0,0,0-1.64,6.79,13.69,13.69,0,0,0,1.64,6.73,12.09,12.09,0,0,0,4.53,4.64,13.69,13.69,0,0,0,6.69,1.62,14.63,14.63,0,0,0,7.14-1.74Z"/><path class="cls-1" d="M48.3,55.5H5.79a.93.93,0,0,1-.24,0,1,1,0,0,1-.24-.09l-.1-.07-.1-.07-.06,0L5,55.12,4.9,55l-.07-.1-.07-.11,0-.11a1,1,0,0,1-.08-.23,1.32,1.32,0,0,1,0-.28V11.8a1.27,1.27,0,0,1,0-.28,2.09,2.09,0,0,1,.08-.23l0-.11.07-.11L4.9,11,5,10.88a.34.34,0,0,1,.06-.06.15.15,0,0,1,.06,0l.1-.07.1-.07.24-.09a.93.93,0,0,1,.24,0h.12a1.32,1.32,0,0,1,.92.38L28.94,33l3,3L49.22,53.28A1.3,1.3,0,0,1,48.3,55.5Z"/><path class="cls-2" d="M28.94,33l3,3L12.51,55.5H5.79a.93.93,0,0,1-.24,0,1,1,0,0,1-.24-.09l-.1-.07-.1-.07-.06,0L5,55.12,4.9,55l-.07-.1-.07-.11,0-.11a1,1,0,0,1-.08-.23,1.32,1.32,0,0,1,0-.28V52.8L26.67,30.73Z"/><path class="cls-3" d="M49.22,12.72l-17,17L28.94,33l-.92.92L6.83,55.12a1.32,1.32,0,0,1-.92.38H5.79a.93.93,0,0,1-.24,0,1.7,1.7,0,0,1-.24-.09l-.1-.07-.1-.07-.06,0L5,55.12,4.9,55l-.07-.1-.07-.11,0-.11a1,1,0,0,1-.08-.23,1.32,1.32,0,0,1,0-.28V11.8a1.27,1.27,0,0,1,0-.28,2.09,2.09,0,0,1,.08-.23l0-.11.07-.11L4.9,11,5,10.88a.34.34,0,0,1,.06-.06.15.15,0,0,1,.06,0l.1-.07.1-.07a1,1,0,0,1,.24-.09.93.93,0,0,1,.24,0H48.3A1.3,1.3,0,0,1,49.22,12.72Z"/></svg>