<svg width="40" height="42" viewBox="0 0 40 42" fill="none" xmlns="http://www.w3.org/2000/svg">
<path d="M35.2427 15.4413L35.2426 15.4413C35.2446 15.4726 35.2973 15.8709 35.7929 16.952C36.2877 18.0317 37.2226 19.7892 38.9845 22.5376C39.3135 23.031 39.4377 23.633 39.3309 24.2164L39.3303 24.2196L39.3302 24.2196C39.252 24.53 39.108 24.82 38.908 25.07C38.7082 25.3197 38.4573 25.5236 38.172 25.6681C37.2091 26.2118 36.2141 26.6966 35.1924 27.1199C35.4309 29.2674 35.4312 31.4348 35.1933 33.5825L35.1928 33.5864L35.1927 33.5863C34.9795 34.706 33.9223 35.34 32.6688 35.6947C31.4117 36.0504 29.9361 36.1319 28.848 36.1319H28.8413L28.8413 36.1314C28.6588 36.1069 28.4731 36.1232 28.2976 36.1793C28.1222 36.2354 27.9615 36.3299 27.827 36.4558C27.6926 36.5817 27.5879 36.7359 27.5204 36.9073C27.453 37.0787 27.4245 37.263 27.4371 37.4467L27.4373 37.4501H27.4372V40.3858C27.4404 40.4737 27.4258 40.5613 27.3944 40.6435C27.3629 40.726 27.3151 40.8012 27.2538 40.8648C27.1926 40.9284 27.1191 40.9789 27.0379 41.0135C26.9567 41.048 26.8693 41.0658 26.781 41.0658C26.6927 41.0658 26.6054 41.048 26.5241 41.0135C26.4429 40.9789 26.3694 40.9284 26.3082 40.8648C26.2469 40.8012 26.1991 40.726 26.1676 40.6435C26.1362 40.5613 26.1217 40.4737 26.1248 40.3858V37.449C26.1063 37.0904 26.1648 36.7321 26.2963 36.398C26.4281 36.0635 26.63 35.7612 26.8885 35.5114C27.147 35.2616 27.456 35.0702 27.7948 34.95C28.1329 34.83 28.4927 34.7838 28.8501 34.8144C30.2862 34.8143 31.5132 34.662 32.4011 34.398C32.8454 34.2658 33.2025 34.1064 33.4582 33.9257C33.7141 33.7449 33.8637 33.5463 33.9037 33.3368C34.107 32.2692 34.0922 30.6387 34.0253 29.2655C33.9618 27.9616 33.8517 26.8953 33.8392 26.7739C33.8385 26.7676 33.8381 26.7639 33.838 26.7628L33.8878 26.7581M35.2427 15.4413L37.9385 23.2374L37.8962 23.2642C37.8963 23.2642 37.8963 23.2643 37.8964 23.2644C38.0229 23.4642 38.0764 23.7017 38.0478 23.9364C38.0054 24.0654 37.937 24.1843 37.8468 24.2858C37.7556 24.3885 37.644 24.4712 37.5192 24.5286L37.5192 24.5285L37.5158 24.5304C36.4636 25.1184 35.3736 25.636 34.2529 26.0799C34.1182 26.1323 34.0045 26.2276 33.9295 26.3512C33.8544 26.4749 33.8223 26.6198 33.8381 26.7635L33.8878 26.7581M35.2427 15.4413L35.2424 15.4386M35.2427 15.4413L35.2424 15.4386M33.8878 26.7581C33.8732 26.6253 33.9029 26.4914 33.9722 26.3772C34.0415 26.263 34.1466 26.1748 34.2711 26.1265L26.1748 37.4476C26.1564 37.0958 26.2137 36.7441 26.3429 36.4163C26.472 36.0885 26.6699 35.7922 26.9232 35.5474C27.1766 35.3026 27.4795 35.1149 27.8115 34.9971C28.1436 34.8793 28.497 34.834 28.848 34.8644C31.7279 34.8644 33.7795 34.2544 33.9528 33.3462C34.3519 31.2505 33.9144 27.0161 33.8889 26.7691C33.8883 26.7629 33.8879 26.7592 33.8878 26.7581ZM16.9485 8.1022H27.4631C27.6237 8.10242 27.7776 8.16632 27.8912 8.27988C28.0048 8.39345 28.0687 8.54741 28.0689 8.70801L16.9485 8.1022ZM16.9485 8.1022C16.478 8.10286 16.0142 8.21397 15.5945 8.42659C15.1903 8.63133 14.8378 8.92471 14.5632 9.28456L16.9485 8.1022ZM35.2424 15.4386C34.4519 8.72182 31.3402 5.09677 28.0105 3.15298C24.6837 1.21084 21.1445 0.95 19.4992 0.95C19.1962 0.95 18.9332 0.956676 18.7289 0.962512C18.7289 0.962514 18.7288 0.962517 18.7287 0.96252L18.4393 0.967499C18.4391 0.967499 18.439 0.967499 18.4388 0.967499C17.7988 0.967529 15.2371 1.03331 12.3381 1.95376C9.44563 2.87217 6.21241 4.64317 4.22112 8.05387H1.60581C1.43188 8.05387 1.26507 8.12296 1.14208 8.24595C1.01909 8.36894 0.95 8.53575 0.95 8.70968V30.9738C0.949999 31.1478 1.01902 31.3148 1.14193 31.438C1.26484 31.5613 1.43161 31.6307 1.60567 31.6312H1.60581M35.2424 15.4386L1.60581 31.6312M1.60581 31.6312H8.05564M1.60581 31.6312H8.05564M8.05564 31.6312C8.17736 31.8229 8.28796 32.0214 8.38691 32.2257C8.96373 33.4998 9.27134 35.5267 9.43435 37.2478C9.59491 38.9431 9.61454 40.3337 9.61545 40.398L8.05564 31.6312ZM28.1189 30.9745V8.70801V8.70794C28.1186 8.5341 28.0495 8.36745 27.9265 8.24453C27.8036 8.12161 27.637 8.05244 27.4631 8.0522H27.4631H16.9485L16.9484 8.0522C16.4701 8.05288 15.9986 8.16583 15.5719 8.38198C15.1651 8.58804 14.8098 8.8824 14.5319 9.24322C14.2539 8.8825 13.8986 8.58821 13.4919 8.38216C13.0652 8.16602 12.5938 8.05301 12.1155 8.0522H12.1154H5.76755C7.57794 5.36918 10.2698 3.92627 12.7462 3.15368C15.2463 2.37368 17.5226 2.27828 18.4393 2.27828H18.4395C18.5186 2.27828 18.6285 2.27828 18.762 2.27158C18.7622 2.27157 18.7624 2.27156 18.7626 2.27155L18.7777 2.27118C18.9711 2.26624 19.2171 2.25995 19.4992 2.25995C21.0101 2.25995 24.2573 2.50076 27.3066 4.28158C30.3529 6.06062 33.207 9.37949 33.9321 15.5471L28.1189 30.9745ZM14.5006 9.28457C14.226 8.92481 13.8735 8.6315 13.4693 8.42676C13.0496 8.21416 12.5858 8.103 12.1154 8.1022L14.5006 9.28457ZM15.1902 11.1238C15.1907 10.6575 15.376 10.2104 15.7057 9.88065C16.0353 9.55087 16.4823 9.3653 16.9486 9.36465H26.8073V30.3171H16.9485C16.3186 30.3168 15.7048 30.5109 15.1902 30.8716V11.1238ZM12.1195 9.36465C12.5857 9.3653 13.0327 9.55087 13.3624 9.88065C13.692 10.2104 13.8774 10.6575 13.8778 11.1238V30.8716C13.3633 30.5109 12.7494 30.3168 12.1195 30.3171H2.26078V9.36465H12.1195Z" fill="#031220" stroke="#031220" stroke-width="0.1"/>
<path d="M4.83725 13.5903H11.3003C11.461 13.5903 11.6151 13.5265 11.7287 13.4128C11.8423 13.2992 11.9061 13.1451 11.9061 12.9845C11.9061 12.8238 11.8423 12.6697 11.7287 12.5561C11.6151 12.4425 11.461 12.3787 11.3003 12.3787H4.83725C4.67658 12.3787 4.52249 12.4425 4.40888 12.5561C4.29527 12.6697 4.23145 12.8238 4.23145 12.9845C4.23145 13.1451 4.29527 13.2992 4.40888 13.4128C4.52249 13.5265 4.67658 13.5903 4.83725 13.5903Z" fill="#006860"/>
<path d="M4.83711 18.1701H11.3002C11.4611 18.1701 11.6154 18.1062 11.7291 17.9924C11.8429 17.8786 11.9068 17.7243 11.9068 17.5634C11.9068 17.4025 11.8429 17.2482 11.7291 17.1345C11.6154 17.0207 11.4611 16.9568 11.3002 16.9568H4.83711C4.67622 16.9568 4.52192 17.0207 4.40815 17.1345C4.29438 17.2482 4.23047 17.4025 4.23047 17.5634C4.23047 17.7243 4.29438 17.8786 4.40815 17.9924C4.52192 18.1062 4.67622 18.1701 4.83711 18.1701Z" fill="#006860"/>
<path d="M4.83711 22.7491H11.3002C11.3798 22.7491 11.4587 22.7334 11.5323 22.7029C11.6059 22.6724 11.6728 22.6277 11.7291 22.5714C11.7855 22.515 11.8302 22.4482 11.8606 22.3746C11.8911 22.301 11.9068 22.2221 11.9068 22.1424C11.9068 22.0627 11.8911 21.9839 11.8606 21.9103C11.8302 21.8367 11.7855 21.7698 11.7291 21.7134C11.6728 21.6571 11.6059 21.6124 11.5323 21.5819C11.4587 21.5515 11.3798 21.5358 11.3002 21.5358H4.83711C4.75744 21.5358 4.67856 21.5515 4.60496 21.5819C4.53136 21.6124 4.46448 21.6571 4.40815 21.7134C4.35182 21.7698 4.30713 21.8367 4.27665 21.9103C4.24616 21.9839 4.23047 22.0627 4.23047 22.1424C4.23047 22.2221 4.24616 22.301 4.27665 22.3746C4.30713 22.4482 4.35182 22.515 4.40815 22.5714C4.46448 22.6277 4.53136 22.6724 4.60496 22.7029C4.67856 22.7334 4.75744 22.7491 4.83711 22.7491Z" fill="#006860"/>
<path d="M4.83711 27.3322H11.3002C11.4611 27.3322 11.6154 27.2683 11.7291 27.1545C11.8429 27.0407 11.9068 26.8864 11.9068 26.7255C11.9068 26.5646 11.8429 26.4103 11.7291 26.2966C11.6154 26.1828 11.4611 26.1189 11.3002 26.1189H4.83711C4.67622 26.1189 4.52192 26.1828 4.40815 26.2966C4.29438 26.4103 4.23047 26.5646 4.23047 26.7255C4.23047 26.8864 4.29438 27.0407 4.40815 27.1545C4.52192 27.2683 4.67622 27.3322 4.83711 27.3322Z" fill="#006860"/>
<path d="M17.7669 13.5903H24.23C24.3907 13.5903 24.5448 13.5265 24.6584 13.4128C24.772 13.2992 24.8358 13.1451 24.8358 12.9845C24.8358 12.8238 24.772 12.6697 24.6584 12.5561C24.5448 12.4425 24.3907 12.3787 24.23 12.3787H17.7669C17.6063 12.3787 17.4522 12.4425 17.3386 12.5561C17.225 12.6697 17.1611 12.8238 17.1611 12.9845C17.1611 13.1451 17.225 13.2992 17.3386 13.4128C17.4522 13.5265 17.6063 13.5903 17.7669 13.5903Z" fill="#006860"/>
<path d="M17.7668 18.1701H24.2299C24.3908 18.1701 24.5451 18.1062 24.6588 17.9924C24.7726 17.8786 24.8365 17.7243 24.8365 17.5634C24.8365 17.4025 24.7726 17.2482 24.6588 17.1345C24.5451 17.0207 24.3908 16.9568 24.2299 16.9568H17.7668C17.6059 16.9568 17.4516 17.0207 17.3378 17.1345C17.2241 17.2482 17.1602 17.4025 17.1602 17.5634C17.1602 17.7243 17.2241 17.8786 17.3378 17.9924C17.4516 18.1062 17.6059 18.1701 17.7668 18.1701Z" fill="#006860"/>
<path d="M17.7668 22.7491H24.2299C24.3095 22.7491 24.3884 22.7334 24.462 22.7029C24.5356 22.6724 24.6025 22.6277 24.6588 22.5714C24.7152 22.515 24.7598 22.4482 24.7903 22.3746C24.8208 22.301 24.8365 22.2221 24.8365 22.1424C24.8365 22.0627 24.8208 21.9839 24.7903 21.9103C24.7598 21.8367 24.7152 21.7698 24.6588 21.7134C24.6025 21.6571 24.5356 21.6124 24.462 21.5819C24.3884 21.5515 24.3095 21.5358 24.2299 21.5358H17.7668C17.6871 21.5358 17.6082 21.5515 17.5346 21.5819C17.461 21.6124 17.3942 21.6571 17.3378 21.7134C17.2815 21.7698 17.2368 21.8367 17.2063 21.9103C17.1758 21.9839 17.1602 22.0627 17.1602 22.1424C17.1602 22.2221 17.1758 22.301 17.2063 22.3746C17.2368 22.4482 17.2815 22.515 17.3378 22.5714C17.3942 22.6277 17.461 22.6724 17.5346 22.7029C17.6082 22.7334 17.6871 22.7491 17.7668 22.7491Z" fill="#006860"/>
<path d="M17.7668 27.3322H20.9992C21.1601 27.3322 21.3144 27.2683 21.4281 27.1545C21.5419 27.0407 21.6058 26.8864 21.6058 26.7255C21.6058 26.5646 21.5419 26.4103 21.4281 26.2966C21.3144 26.1828 21.1601 26.1189 20.9992 26.1189H17.7668C17.6059 26.1189 17.4516 26.1828 17.3378 26.2966C17.2241 26.4103 17.1602 26.5646 17.1602 26.7255C17.1602 26.8864 17.2241 27.0407 17.3378 27.1545C17.4516 27.2683 17.6059 27.3322 17.7668 27.3322Z" fill="#006860"/>
</svg>
