<svg width="44" height="41" viewBox="0 0 44 41" fill="none" xmlns="http://www.w3.org/2000/svg">
<path d="M23.3421 18.3518C23.5378 18.3322 23.7725 18.3322 23.9877 18.3518C28.6435 18.1953 32.3408 14.3806 32.3408 9.68568C32.3408 4.89291 28.4675 1 23.6551 1C18.8624 1 14.9695 4.89291 14.9695 9.68568C14.989 14.3806 18.6863 18.1953 23.3421 18.3518Z" stroke="#031220" stroke-width="1.6" stroke-linecap="round" stroke-linejoin="round"/>
<path d="M10.8985 4.91248C7.10343 4.91248 4.0517 7.98376 4.0517 11.7593C4.0517 15.4566 6.98605 18.4692 10.6442 18.6061C10.8007 18.5866 10.9768 18.5866 11.1528 18.6061" stroke="#031220" stroke-width="1.6" stroke-linecap="round" stroke-linejoin="round"/>
<path d="M33.1233 25.5703C37.8574 28.7394 37.8574 33.9039 33.1233 37.0534C27.7436 40.6529 18.921 40.6529 13.5414 37.0534C8.80726 33.8843 8.80726 28.7198 13.5414 25.5703C18.9014 21.9904 27.7241 21.9904 33.1233 25.5703Z" stroke="#031220" stroke-width="1.6" stroke-linecap="round" stroke-linejoin="round"/>
<path d="M7.12305 36.2123C5.71456 35.9188 4.38432 35.3515 3.28883 34.5103C0.237103 32.2215 0.237103 28.446 3.28883 26.1572C4.36476 25.3356 5.67543 24.7879 7.06436 24.4749" stroke="#031220" stroke-width="1.6" stroke-linecap="round" stroke-linejoin="round"/>
<path d="M35.8078 22.6875L37.3378 25.7729C37.5465 26.2024 38.1028 26.6143 38.5723 26.6932L41.3455 27.1578C43.1189 27.4558 43.5362 28.7531 42.2583 30.0328L40.1023 32.2066C39.7372 32.5747 39.5373 33.2847 39.6503 33.7931L40.2675 36.484C40.7543 38.614 39.6329 39.4379 37.7638 38.3247L35.1645 36.7733C34.695 36.4928 33.9213 36.4928 33.4432 36.7733L30.8438 38.3247C28.9834 39.4379 27.8533 38.6052 28.3401 36.484L28.9574 33.7931C29.0704 33.2847 28.8704 32.5747 28.5053 32.2066L26.3493 30.0328C25.0801 28.7531 25.4887 27.4558 27.2621 27.1578L30.0353 26.6932C30.4961 26.6143 31.0525 26.2024 31.2611 25.7729L32.7912 22.6875C33.6257 21.0133 34.9819 21.0133 35.8078 22.6875Z" fill="#F5F6F8" stroke="#006860" stroke-width="1.5" stroke-linecap="round" stroke-linejoin="round"/>
</svg>
