<svg width="50" height="38" viewBox="0 0 50 38" fill="none" xmlns="http://www.w3.org/2000/svg">
<path d="M14.6984 27.5676V25.3757H16.1609V27.5676H14.6984Z" fill="#031220" stroke="#F5F6F8" stroke-width="0.1"/>
<path d="M18.9289 27.5676V25.3757H20.3914V27.5676H18.9289Z" fill="#031220" stroke="#F5F6F8" stroke-width="0.1"/>
<path d="M17.5234 25.9512C14.1936 25.9512 11.7766 23.4538 11.7766 20.0065V19.0436H13.2391V20.0065C13.2391 21.2677 13.6788 22.3416 14.436 23.1004C15.1932 23.8591 16.265 24.2997 17.5234 24.2997C18.7821 24.2997 19.8538 23.8591 20.611 23.1004C21.3682 22.3416 21.8078 21.2677 21.8078 20.0065V14.6279H23.2703V20.006C23.2707 23.4538 20.8532 25.9512 17.5234 25.9512Z" fill="#031220" stroke="#F5F6F8" stroke-width="0.1"/>
<path d="M15.2449 8.89414L25.4445 8.89327V12.1213C25.4445 14.2014 23.9423 15.8832 22.1085 15.8832H13.9511C13.5654 15.8832 13.2621 16.2371 13.2621 16.6588V23.2591L9.42378 18.0384V13.3221C9.42378 11.6064 10.6626 10.221 12.1734 10.221H12.6785H12.7032L12.7182 10.2013C13.3495 9.37396 14.2662 8.89414 15.2449 8.89414ZM10.8859 17.4764H10.911L11.7097 18.5626L11.8 18.6854V18.533V16.6588C11.8 15.3145 12.7704 14.2316 13.9515 14.2316H22.1085C23.1468 14.2316 23.9816 13.2789 23.9816 12.1213V10.5948V10.5448H23.9316L15.2445 10.5448L15.2444 10.5448C14.611 10.5457 14.0256 10.9051 13.6775 11.5015C13.6775 11.5015 13.6775 11.5015 13.6775 11.5015L13.4607 11.8725H12.173C11.4577 11.8725 10.8859 12.5288 10.8859 13.3221V17.4264V17.4764Z" fill="#031220" stroke="#F5F6F8" stroke-width="0.1"/>
<path d="M42.9272 32.716V21.0804H44.3897V32.716H42.9272Z" fill="#031220" stroke="#F5F6F8" stroke-width="0.1"/>
<path d="M7.07148 32.7159H5.60859V6.08232C5.60859 4.82863 6.51386 3.81892 7.61445 3.81892H26.0965V5.4705H7.61484C7.30947 5.4705 7.07148 5.75095 7.07148 6.08232V32.7159Z" fill="#031220" stroke="#F5F6F8" stroke-width="0.1"/>
<path d="M10.2843 32.0648H8.82222V30.104C8.82222 28.2623 10.2811 26.7664 12.071 26.7664H23.1183C24.9082 26.7664 26.3667 28.2627 26.3667 30.104V31.5266H24.9042V30.104C24.9042 29.1711 24.1001 28.418 23.1183 28.418H12.0707C11.0885 28.418 10.2843 29.1715 10.2843 30.104V32.0648Z" fill="#031220" stroke="#F5F6F8" stroke-width="0.1"/>
<path d="M0.34435 35.8766L0.344278 35.8765L0.05 35.6292V31.807H49.95V35.6292L49.6558 35.8773C49.5603 35.9573 49.0814 36.3514 48.4465 36.7253C47.81 37.1002 47.0245 37.4499 46.3141 37.4499H3.68516C2.9745 37.4499 2.18909 37.1002 1.55278 36.7252C0.918101 36.3512 0.439536 35.9568 0.34435 35.8766ZM1.5125 34.7592V34.7844L1.5328 34.7994C1.84194 35.0277 2.22749 35.2768 2.61064 35.469C2.99207 35.6603 3.3778 35.7988 3.68516 35.7988H46.3145C46.6216 35.7988 47.0073 35.6603 47.3888 35.469C47.772 35.2768 48.1578 35.0277 48.4676 34.7994L48.4879 34.7844V34.7592V33.509V33.459H48.4379H1.5625H1.5125V33.509V34.7592Z" fill="#031220" stroke="#F5F6F8" stroke-width="0.1"/>
<path d="M31.814 23.2115V19.0489V18.9989H31.764H30.2214C29.1087 18.9989 28.1862 17.876 28.1862 16.4732V2.57745C28.1862 1.17324 29.1088 0.05 30.2214 0.05H45.3772C46.4915 0.05 47.4163 1.17335 47.4163 2.57745V16.4732C47.4163 17.8759 46.4919 18.9989 45.3772 18.9989H36.2425H36.2224L36.2079 19.0127L31.814 23.2115ZM30.1714 1.70158V1.70539C30.027 1.72498 29.9016 1.82807 29.8116 1.97022C29.7107 2.12959 29.6487 2.34555 29.6487 2.57789V16.4732C29.6487 16.7051 29.7107 16.9206 29.8116 17.0797C29.9119 17.2377 30.0561 17.3473 30.2214 17.3473H33.2765V19.5336V19.6506L33.361 19.5698L35.6864 17.3473H45.3769C45.5429 17.3473 45.6881 17.2379 45.7892 17.0798C45.8909 16.9208 45.9534 16.7052 45.9534 16.4732V2.57745C45.9534 2.34526 45.891 2.12925 45.7894 1.96982C45.6884 1.81136 45.5432 1.70158 45.3769 1.70158H30.2214H30.1714Z" fill="#006860" stroke="#F5F6F8" stroke-width="0.1"/>
<path d="M36.2704 6.36712L36.1932 6.3168V6.40902V11.6887V11.7809L36.2704 11.7306L40.3255 9.09143L40.3899 9.04954L40.3255 9.00763L36.2704 6.36712ZM43.3179 9.04952L34.7307 14.6386V3.45831L43.3179 9.04952Z" fill="#006860" stroke="#F5F6F8" stroke-width="0.1"/>
</svg>
